<svg xmlns="http://www.w3.org/2000/svg" xmlns:xlink="http://www.w3.org/1999/xlink" viewBox="0 0 1000 500">
  <defs>
    <style>
      .a {
        fill: none;
      }

      .b {
        clip-path: url(#a);
      }

      .c {
        fill: #5dbb63;
      }
    </style>
    <clipPath id="a">
      <path class="a" d="M305.26077,0H970.61371c16.56854,0,30,13.91065,30,31.07031v439.153c0,17.15966-13.43146,31.07031-30,31.07031H305.26077c-16.56854,0-30-13.91065-30-31.07031V31.07031C275.26077,13.91065,288.69223,0,305.26077,0Z"/>
    </clipPath>
  </defs>
  <g>
    <g class="b">
      <image width="2119" height="1414" transform="translate(359.73321) scale(0.34231 0.35452)" xlink:href="porridge-with-berries-in-a-bowl-royalty-free-image-1011949898-1559339734.jpg"/>
    </g>
    <path class="c" d="M68.91165,1.29365H500a0,0,0,0,1,0,0v500a0,0,0,0,1,0,0H68.91165A68.91165,68.91165,0,0,1,0,432.382V70.20531A68.91165,68.91165,0,0,1,68.91165,1.29365Z"/>
  </g>
</svg>
