<svg xmlns="http://www.w3.org/2000/svg" viewBox="0 0 93.96712 108.16201">
  <defs>
    <style>
      .a {
        fill: #01aa95;
      }

      .b {
        fill: #5dbb63;
      }

      .c {
        fill: #a5e887;
      }
    </style>
  </defs>
  <g>
    <path class="a" d="M85.60532,88.392C98.85113,63.36263,56.71068,7.919,56.71068,7.919S50.2436,20.1701,23.35809,43.68262C2.04166,62.32474,28.30681,116.081,28.30681,116.081S72.35953,113.4213,85.60532,88.392Z" transform="translate(-15.01644 -7.919)"/>
    <g>
      <path class="b" d="M105.57468,25.25482s-1.0532.19041-2.90265.57946C91.58636,48.01,81.39164,70.13151,58.92079,85.46876c-11.875,8.29008-21.20118,18.23614-31.02327,27.37465.30009,1.79314.5216,2.814.5216,2.814s48.00056,4.396,68.50546-15.13524S105.57468,25.25482,105.57468,25.25482Z" transform="translate(-15.01644 -7.919)"/>
      <path class="c" d="M102.672,25.83428c-10.34,2.175-45.72849,10.59825-63.12224,27.16606C22.19444,69.53157,26.244,102.96246,27.89752,112.84341c9.82209-9.13851,19.14829-19.08457,31.02327-27.37465C81.39164,70.13151,91.58636,48.01,102.672,25.83428Z" transform="translate(-15.01644 -7.919)"/>
    </g>
  </g>
</svg>
