<svg xmlns="http://www.w3.org/2000/svg" 
version="1.1" xmlns:xlink="http://www.w3.org/1999/xlink" xmlns:svgjs="http://svgjs.dev/svgjs" width="200" height="60" viewBox="0 0 1000 131"><g transform="matrix(1,0,0,1,-0.6060606060606233,0.5058573704549616)"><svg viewBox="0 0 396 52" data-background-color="#ffffff" preserveAspectRatio="xMidYMid meet" height="131" width="1000" xmlns="http://www.w3.org/2000/svg" xmlns:xlink="http://www.w3.org/1999/xlink"><g id="tight-bounds" transform="matrix(1,0,0,1,0.2400000000000091,-0.20079834552410603)"><svg viewBox="0 0 395.52 52.4015966910482" height="52.4015966910482" width="395.52"><g><svg viewBox="0 0 521.0670684148379 69.0350585762064" height="52.4015966910482" width="395.52"><g><rect width="6.194679429435566" height="69.0350585762064" x="103.13595068845058" y="0" fill="#152232" opacity="1" stroke-width="0" stroke="transparent" fill-opacity="1" class="rect-i$-0" data-fill-palette-color="primary" rx="1%" id="i$-0" data-palette-color="#152232"></rect></g><g transform="matrix(1,0,0,1,125.5470684148379,0.17172900143334857)"><svg viewBox="0 0 395.52 68.6916005733397" height="68.6916005733397" width="395.52"><g id="textblocktransform"><svg viewBox="0 0 395.52 68.6916005733397" height="68.6916005733397" width="395.52" id="textblock"><g><svg viewBox="0 0 395.52 68.6916005733397" height="68.6916005733397" width="395.52"><g transform="matrix(1,0,0,1,0,0)"><svg width="395.52" viewBox="1.85 -35.8 209.28 36.349999999999994" height="68.6916005733397" data-palette-color="#152232"><path d="M7.75-9.75Q8-7.55 9.55-6.2 11.1-4.85 13.6-4.85L13.6-4.85Q15.7-4.85 17.03-5.55 18.35-6.25 18.95-7.25 19.55-8.25 19.55-9.2L19.55-9.2Q19.55-11.4 18.48-12.88 17.4-14.35 15.83-15.23 14.25-16.1 11.55-17.25L11.55-17.25Q8.6-18.5 6.88-19.53 5.15-20.55 3.93-22.33 2.7-24.1 2.7-26.85L2.7-26.85Q2.7-29.05 3.95-31.03 5.2-33 7.75-34.25 10.3-35.5 14-35.5L14-35.5Q16.45-35.5 18.05-35.15 19.65-34.8 21.3-34L21.3-34 19.55-28.8Q17.75-29.4 16.63-29.65 15.5-29.9 14.05-29.9L14.05-29.9Q11.2-29.9 9.85-28.9 8.5-27.9 8.65-26.35L8.65-26.35Q8.8-25.1 10.18-24.2 11.55-23.3 14.45-22L14.45-22Q17.85-20.5 20.1-19.15 22.35-17.8 23.98-15.45 25.6-13.1 25.6-9.7L25.6-9.7Q25.6-5.25 22.65-2.35 19.7 0.55 13.65 0.55L13.65 0.55Q9.95 0.55 7.33-0.83 4.7-2.2 3.33-4.38 1.95-6.55 1.85-8.9L1.85-8.9 7.75-9.75ZM31.95 0L31.95-35 43.35-35Q48.6-35 51.12-31.63 53.65-28.25 53.65-23.15L53.65-23.15Q53.65-9.75 43.8-9.75L43.8-9.75 37.45-9.75 37.45 0 31.95 0ZM42.15-15Q45-15 46.32-16.25 47.65-17.5 47.9-19.07 48.15-20.65 48.15-23.05L48.15-23.05Q48.15-25.7 47.42-27.13 46.7-28.55 45.37-29.03 44.05-29.5 41.95-29.5L41.95-29.5 37.45-29.5 37.45-15 42.15-15ZM79.75-9.25Q79.75-4.2 76.67-1.83 73.59 0.55 69.3 0.55L69.3 0.55Q66.59 0.55 64.19-0.43 61.8-1.4 60.27-3.6 58.74-5.8 58.74-9.25L58.74-9.25 58.74-25.35Q58.74-30.5 61.57-33.15 64.39-35.8 69.34-35.8L69.34-35.8Q74.3-35.8 77.02-33 79.75-30.2 79.75-25.3L79.75-25.3 79.75-9.25ZM74.25-23.5Q74.25-25.6 73.89-26.95 73.55-28.3 72.44-29.08 71.34-29.85 69.25-29.85L69.25-29.85Q67.14-29.85 66.05-29.1 64.94-28.35 64.59-27.03 64.25-25.7 64.25-23.55L64.25-23.55 64.25-10.2Q64.25-7.8 65.47-6.43 66.69-5.05 69.25-5.05L69.25-5.05Q71.59-5.05 72.92-6.5 74.25-7.95 74.25-10.3L74.25-10.3 74.25-23.5ZM103.09 0L99.74-9.75 92.44-9.75 92.44 0 86.94 0 86.94-35 98.79-35Q102.09-35 104.29-33.38 106.49-31.75 107.57-29.05 108.64-26.35 108.64-23.1L108.64-23.1Q108.64-20.65 108.44-18.85 108.24-17.05 107.42-15.1 106.59-13.15 104.79-11.6L104.79-11.6 108.69 0 103.09 0ZM97.49-15Q99.94-15 101.12-16.28 102.29-17.55 102.57-19.2 102.84-20.85 102.84-23.1L102.84-23.1Q102.84-25.75 102.09-27.13 101.34-28.5 99.99-28.98 98.64-29.45 96.49-29.45L96.49-29.45 92.44-29.45 92.44-15 97.49-15ZM117.44 0L117.44-29.45 110.24-29.45 110.24-35 130.34-35 130.34-29.45 122.94-29.45 122.94 0 117.44 0ZM134.24 0L134.24-35 139.74-35 139.74-5.05 152.29-5.05 152.29 0 134.24 0ZM158.49 0L158.49-29.6 155.39-29.7 155.39-35 163.99-35 163.99 0 158.49 0ZM171.88 0L171.88-35 188.58-35 188.58-29.5 177.38-29.5 177.38-20.65 184.38-20.65 182.58-15.4 177.38-15.4 177.38 0 171.88 0ZM194.43 0L194.43-35 211.13-35 211.13-29.5 199.93-29.5 199.93-20.65 206.78-20.65 205.23-15.4 199.93-15.4 199.93-5 211.03-5 211.03 0 194.43 0Z" opacity="1" transform="matrix(1,0,0,1,0,0)" fill="#152232" class="undefined-text-0" data-fill-palette-color="primary" id="text-0"></path></svg></g></svg></g></svg></g></svg></g><g transform="matrix(1,0,0,1,0,0.17172900143334857)"><svg viewBox="0 0 86.91951239149884 68.6916005733397" height="68.6916005733397" width="86.91951239149884"><g><svg xmlns="http://www.w3.org/2000/svg" xmlns:xlink="http://www.w3.org/1999/xlink" version="1.1" x="0" y="0" viewBox="2.823 12.982 94.35400000000001 74.56700000000001" enable-background="new 0 0 100 100" xml:space="preserve" height="68.6916005733397" width="86.91951239149884" class="icon-icon-0" data-fill-palette-color="accent" id="icon-0"><path fill="#5ebc67" d="M49.997 87.549l-36.819-28.54C6.609 54.122 2.823 46.657 2.823 38.552c0-14.1 11.472-25.57 25.573-25.57 8.85 0 16.964 4.573 21.601 11.92 4.638-7.347 12.757-11.92 21.614-11.92 14.098 0 25.566 11.471 25.566 25.57 0 8.111-3.786 15.576-10.388 20.481L49.997 87.549zM28.396 16.981c-11.896 0-21.573 9.676-21.573 21.57 0 6.828 3.198 13.123 8.773 17.271l34.4 26.665 34.375-26.642c5.608-4.167 8.806-10.462 8.806-17.295 0-11.894-9.675-21.57-21.566-21.57-8.586 0-16.35 5.096-19.78 12.983l-1.834 4.216-1.834-4.216C44.733 22.078 36.974 16.981 28.396 16.981z" data-fill-palette-color="accent"></path><polygon points="41.217,50.026 40.455,52.201 27.673,52.201 27.673,48.643 37.931,48.643 40.816,40.402 48.315,57.197   56.207,32.901 62.359,49.532 72.329,49.532 72.329,53.09 59.881,53.09 56.426,43.747 48.84,67.1 " fill="#5ebc67" data-fill-palette-color="accent"></polygon></svg></g></svg></g></svg></g><defs></defs></svg><rect width="395.52" height="52.4015966910482" fill="none" stroke="none" visibility="hidden"></rect></g></svg></g></svg>