<svg xmlns="http://www.w3.org/2000/svg" viewBox="0 0 1091.41797 349.9781"  >
  <defs>
    <style>
      .a {
        fill: #fff;
      }

      .b {
        fill: #01aa95;
      }

      .c {
        fill: #5dbb63;
      }

      .d {
        fill: #a5e887;
      }

      .e {
        font-size: 149.08348px;
        fill: #707070;
        font-family: Ubuntu-Regular, Ubuntu;
        letter-spacing: -0.014em;
      }

      .f {
        letter-spacing: 0em;
      }

      .g {
        letter-spacing: -0.02899em;
      }

      .h {
        letter-spacing: -0.01499em;
      }

      .i {
        letter-spacing: -0.00001em;
      }
    </style>
  </defs>
  <path class="a" d="M21.22449,745.71429" transform="translate(-137.29101 -209.01095)"/>
  <g>
    <g>
      <path class="b" d="M365.69432,469.39608c42.85926-80.987-93.49391-260.38513-93.49391-260.38513S251.275,248.65165,164.282,324.73073c-68.97325,60.32,16.01249,234.25832,16.01249,234.25832S322.83513,550.3831,365.69432,469.39608Z" transform="translate(-137.29101 -209.01095)"/>
      <g>
        <path class="c" d="M430.30888,265.10421s-3.40782.61611-9.39207,1.87493C385.04708,338.73283,352.06021,410.311,279.35163,459.9375c-38.42368,26.82406-68.60034,59.00638-100.38151,88.57572.971,5.802,1.68773,9.10524,1.68773,9.10524s155.31466,14.224,221.662-48.97284C468.66716,445.4488,430.30888,265.10421,430.30888,265.10421Z" transform="translate(-137.29101 -209.01095)"/>
        <path class="d" d="M420.91681,266.97914c-33.45685,7.03775-147.96294,34.29259-204.24364,87.9008-56.15642,53.48985-43.05346,161.66164-37.703,193.63328,31.78117-29.56934,61.95783-61.75166,100.38151-88.57572C352.06021,410.311,385.04708,338.73283,420.91681,266.97914Z" transform="translate(-137.29101 -209.01095)"/>
      </g>
    </g>
    <text class="e" transform="translate(364.94314 217.602)">F<tspan class="f" x="77.96973" y="0">ood </tspan><tspan class="g" x="376.13281" y="0">W</tspan><tspan class="h" x="510.30664" y="0">a</tspan><tspan class="i" x="585.89063" y="0">ys</tspan></text>
  </g>
</svg>
